<svg width="148" height="23" viewBox="0 0 148 23" fill="none" xmlns="http://www.w3.org/2000/svg">
<g clip-path="url(#clip0)">
<path d="M25.0454 22.288H19.5919V10.4749H19.5415L18.4474 12.8045L12.5732 22.5524H12.489L6.61481 12.8045L5.52076 10.4749H5.47026V22.288H0V0H4.4772L11.6138 11.8462L12.489 13.7958H12.5395L13.3474 11.8462L20.5177 0H25.0454V22.288Z" fill="#E9E8F1"/>
<path d="M72.0728 22.255H67.562L58.1026 11.301L56.167 8.49225H56.1165V22.255H50.6631V0H55.1739L64.8016 11.0366L66.5689 13.614H66.6194V0H72.0728V22.255Z" fill="#E9E8F1"/>
<path d="M87.743 22.255H82.2896V8.92188H87.743V22.255Z" fill="#E9E8F1"/>
<path d="M116.289 4.69222H102.353L102.858 5.18787V8.7566L102.353 9.25226H114.859V13.9445H102.353L102.858 14.4401V22.2385H97.4043V0H116.289V4.69222Z" fill="#E9E8F1"/>
<path d="M148 0L137.48 13.1349H131.993L121.473 0H128.307L133.424 6.62528L134.703 8.70704H134.753L136.033 6.62528L141.2 0H148Z" fill="#E9E8F1"/>
<path d="M87.743 5.07222H82.2896V0H87.743V5.07222Z" fill="#F92672"/>
<path d="M40.7324 22.255H35.2789V8.92188H40.7324V22.255Z" fill="#E9E8F1"/>
<path d="M40.7324 5.07222H35.2789V0H40.7324V5.07222Z" fill="#F92672"/>
<path d="M132.01 17.1829H137.463V22.2551H132.01V17.1829Z" fill="#F92672"/>
</g>
<defs>
<clipPath id="clip0">
<rect width="148" height="22.5524" fill="white"/>
</clipPath>
</defs>
</svg>
